<svg width="117" height="117" viewBox="0 0 117 117" fill="none" xmlns="http://www.w3.org/2000/svg">
<g clip-path="url(#clip0)">
<path d="M21.9375 75.8672C23.1988 75.8672 24.2227 74.8433 24.2227 73.582C24.2227 72.3207 23.1988 71.2969 21.9375 71.2969C20.6762 71.2969 19.6523 72.3207 19.6523 73.582C19.6523 74.8433 20.6762 75.8672 21.9375 75.8672Z" fill="#828282"/>
<path d="M31.0781 62.1562H2.28516C1.02296 62.1562 0 63.1792 0 64.4414V105.574C0 106.836 1.02296 107.859 2.28516 107.859H31.0781C32.3403 107.859 33.3633 106.836 33.3633 105.574V103.289H41.115C44.108 104.608 46.9278 106.23 49.5236 108.091C55.0848 112.082 61.601 114.344 68.4342 114.67C69.7223 116.131 71.5968 117 73.582 117H101.004C104.784 117 107.859 113.925 107.859 110.145V107.085C110.576 105.797 112.43 103.053 112.43 99.8613C112.43 98.4813 112.079 97.1825 111.461 96.0489C114.616 95.0339 117 92.0606 117 88.4355C117 86.2013 116.078 84.1786 114.595 82.7253C116.173 81.1802 117 79.1432 117 77.0098C117 74.7755 116.078 72.7528 114.595 71.2996C116.173 69.7544 117 67.7174 117 65.584C117 61.1735 113.412 57.5859 109.002 57.5859H107.759C107.435 55.1026 106.312 52.8076 104.512 51.0072L98.8482 45.3434C100.028 35.9368 99.5641 24.0673 97.3548 14.6946C97.9189 13.5645 98.4777 12.4479 98.4777 12.4479C98.7214 11.9596 98.783 11.4008 98.65 10.8715L96.3649 1.73083C96.1114 0.713219 95.1973 0 94.1484 0H80.4375C79.3886 0 78.4746 0.713219 78.2211 1.73083L75.9359 10.8715C75.8029 11.3999 75.8645 11.9587 76.1082 12.447C76.1082 12.447 76.6679 13.569 77.2347 14.7C75.0701 23.8629 74.5309 35.7261 75.7378 45.3434L70.3498 50.7305H70.1543C61.1922 50.7305 52.6398 54.085 46.0709 60.1773C45.2032 61.0003 46.5127 59.5837 40.5187 66.7266H33.3633V64.4414C33.3633 63.1792 32.3403 62.1562 31.0781 62.1562ZM28.793 103.289H4.57031V66.7266H28.793V103.289ZM103.289 110.145C103.289 111.405 102.264 112.43 101.004 112.43H73.582C72.3279 112.43 71.2969 111.409 71.2969 110.145V103.289H90.352C91.6535 106.021 94.4466 107.859 97.5762 107.859H103.289V110.145ZM91.9204 71.3531C91.1411 72.1324 90.5449 73.0447 90.1476 74.0382C89.2354 73.7391 88.2731 73.582 87.293 73.582C82.2531 73.582 78.1523 77.6828 78.1523 82.7227C78.1523 87.7625 82.2531 91.8633 87.293 91.8633C88.2749 91.8633 89.2389 91.7062 90.1521 91.4054C90.569 92.4435 91.1965 93.3745 91.9829 94.1458C91.9624 94.1654 91.9409 94.185 91.9204 94.2056C90.6823 95.4428 89.9013 97.0156 89.6594 98.7188H71.2969V74.4702C72.3422 71.9985 73.0322 69.4018 73.3437 66.7266H89.6611C89.9164 68.5038 90.7582 70.0936 91.9829 71.2942C91.9624 71.3138 91.9409 71.3326 91.9204 71.3531ZM91.9749 82.7271C91.957 82.745 91.9383 82.7619 91.9204 82.7798C90.8832 83.8161 90.153 85.123 89.8075 86.5342C89.0666 87.0243 88.1963 87.293 87.293 87.293C84.773 87.293 82.7227 85.2426 82.7227 82.7227C82.7227 80.2027 84.773 78.1523 87.293 78.1523C88.1963 78.1523 89.0675 78.421 89.8075 78.9111C90.1664 80.3938 90.9314 81.705 91.9749 82.7271ZM104.432 103.289H97.5762C95.7114 103.289 94.1484 101.776 94.1484 99.8613C94.1484 97.9663 95.6802 96.4336 97.5762 96.4336H104.432C106.321 96.4336 107.859 97.9716 107.859 99.8613C107.859 101.766 106.317 103.289 104.432 103.289ZM109.002 91.8633H97.5762C95.4999 91.8633 93.9351 90.0271 94.169 88.0722C94.1699 88.0642 94.1708 88.0562 94.1716 88.0472C94.3537 86.3691 95.7838 85.0078 97.5762 85.0078H109.002C110.892 85.0078 112.43 86.5458 112.43 88.4355C112.43 90.3306 110.898 91.8633 109.002 91.8633ZM109.002 80.4375H97.5762C95.6713 80.4375 94.1484 78.9039 94.1484 77.0098C94.1484 75.1147 95.6802 73.582 97.5762 73.582H109.002C110.892 73.582 112.43 75.12 112.43 77.0098C112.43 78.9048 110.898 80.4375 109.002 80.4375ZM109.002 62.1562C110.892 62.1562 112.43 63.6943 112.43 65.584C112.43 67.4791 110.898 69.0117 109.002 69.0117H97.5762C95.4285 69.0117 93.786 67.0417 94.2163 64.902C94.2163 64.8993 94.2172 64.8967 94.2172 64.894C94.5233 63.3827 95.8694 62.1562 97.5762 62.1562H109.002ZM81.8702 14.9829C82.0032 14.4518 81.9416 13.8904 81.6961 13.4012C81.3167 12.6442 80.8785 11.7686 80.5741 11.1598L82.2219 4.57031H92.3641L94.0119 11.1598C93.7084 11.7677 93.271 12.6416 92.8925 13.4012C92.6488 13.8895 92.5881 14.4483 92.7202 14.9776C93.4111 17.7341 93.9619 20.8922 94.3359 24.2227H80.2527C80.6276 20.8895 81.1784 17.7341 81.8702 14.9829ZM79.768 47.7758C80.2768 47.267 80.5161 46.5493 80.4143 45.837C79.6832 40.716 79.4922 34.7353 79.8582 28.793H94.7295C95.0937 34.7379 94.9018 40.7186 94.1716 45.837C94.0699 46.5493 94.3091 47.2679 94.8179 47.7758L101.281 54.2385C102.214 55.1722 102.844 56.3273 103.123 57.5859H97.5762C97.1656 57.5859 96.7603 57.6172 96.3622 57.677C95.8462 53.7628 92.489 50.7305 88.4355 50.7305H76.8143L79.768 47.7758ZM41.5898 71.2969C42.2682 71.2969 42.9118 70.9952 43.3457 70.4739L48.9613 63.73C49.1951 63.5827 56.8799 55.3008 70.1543 55.3008H88.4355C90.3253 55.3008 91.8633 56.8388 91.8633 58.7285C91.8633 60.5906 90.3592 62.1562 88.4355 62.1562H71.3835C70.298 62.1562 69.3616 62.9203 69.1447 63.9844C68.9385 65.0163 68.9091 65.0796 68.8912 65.3117C68.677 68.0102 68.0146 70.6247 66.9229 73.083C63.1685 81.5533 56.0194 84.5427 55.6016 84.8587C54.4929 85.4631 54.0841 86.8511 54.6884 87.9589C55.291 89.0649 56.6781 89.4773 57.7877 88.872C58.2759 88.5516 62.6258 86.644 66.7266 81.8541V109.951C61.4814 109.372 56.5032 107.476 52.1873 104.377C49.2237 102.254 45.9772 100.399 42.4905 98.9035C42.2058 98.7821 41.8996 98.7188 41.5898 98.7188H33.3633V71.2969H41.5898Z" fill="#828282"/>
<path d="M21.9375 98.7188C23.1997 98.7188 24.2227 97.6958 24.2227 96.4336V82.7227C24.2227 81.4605 23.1997 80.4375 21.9375 80.4375C20.6753 80.4375 19.6523 81.4605 19.6523 82.7227V96.4336C19.6523 97.6958 20.6753 98.7188 21.9375 98.7188Z" fill="#828282"/>
</g>
<defs>
<clipPath id="clip0">
<rect width="117" height="117" fill="white"/>
</clipPath>
</defs>
</svg>
