<svg width="113" height="113" viewBox="0 0 113 113" fill="none" xmlns="http://www.w3.org/2000/svg">
<path d="M52.2239 12.5326L30.8329 8.35911C29.9044 8.1772 28.9656 8.60568 28.4914 9.42297C28.1715 9.97473 20.6176 23.1376 17.333 39.9731C16.5751 43.8578 16.2415 47.7141 16.3191 51.3807C16.3553 54.2524 16.701 57.1431 17.3467 59.9407C17.5304 60.7339 17.7442 61.521 17.9873 62.2978C19.8124 68.1248 22.9471 72.1061 26.937 73.751L22.3169 98.6517L12.3671 96.7102C9.84715 96.2188 7.24785 97.6206 6.28918 100.004C6.1271 100.409 6.02881 100.827 5.94605 101.253C5.86674 101.656 5.77966 102.058 5.75121 102.469C5.66069 103.772 6.0564 105.076 6.84352 106.117C7.64615 107.178 8.8264 107.911 10.1317 108.166L34.4021 112.902C36.5065 113.312 38.7377 112.377 39.9447 110.608C40.2602 110.146 40.5016 109.633 40.6533 109.093C40.8396 108.432 40.9904 107.717 41.0241 107.032C41.0861 105.771 40.687 104.505 39.9274 103.499C39.1282 102.441 37.9385 101.701 36.6367 101.447L26.6663 99.5009L31.2881 74.5933C35.3625 74.5563 39.5119 72.3027 43.2276 68.0748C43.532 67.73 43.8225 67.3756 44.1096 67.0161C46.8373 63.6133 49.1202 59.3269 50.7962 54.5197C51.6609 52.0351 52.3454 49.4849 52.8489 46.9028C56.1345 30.0682 54.0826 15.0311 53.9938 14.3991C53.8619 13.4637 53.1515 12.7137 52.2239 12.5326ZM36.4272 106.219C36.5962 106.47 36.6074 106.773 36.5652 107.063C36.5264 107.331 36.4781 107.629 36.3798 107.882C36.2005 108.347 35.7556 108.651 35.2504 108.552L10.9808 103.817C10.6886 103.76 10.4325 103.568 10.2911 103.307C10.098 102.952 10.2032 102.583 10.2739 102.211C10.3377 101.876 10.386 101.546 10.6515 101.305C10.8834 101.095 11.2102 101 11.5179 101.06L35.7884 105.796C36.1419 105.865 36.3401 106.091 36.4272 106.219ZM31.5786 13.0197L49.7823 16.5717C50.2039 20.7857 51.0505 32.9804 48.5004 46.0545C48.2969 47.0968 48.0607 48.1219 47.8012 49.1297H20.7513C20.8237 46.4364 21.1323 43.6423 21.6824 40.8214C24.2291 27.7732 29.6044 16.77 31.5786 13.0197ZM44.5415 58.0389C43.413 60.3399 42.0612 62.546 40.4292 64.5263C38.0497 67.4162 35.5392 69.2439 33.1218 69.8939C31.9037 70.2172 30.6234 70.2577 29.4044 69.9198C27.3491 69.3473 25.5541 67.7576 24.1385 65.3962C22.5022 62.6478 21.6341 59.4631 21.1651 56.3198C21.028 55.4051 20.928 54.4835 20.8582 53.561H46.4347C45.8847 55.0861 45.2579 56.5845 44.5415 58.0389Z" fill="#828282"/>
<path d="M44.6139 38.4619C44.6829 38.4679 44.751 38.4714 44.8183 38.4714C45.9511 38.4714 46.9175 37.6067 47.0227 36.4566C47.4383 31.8994 47.5546 27.1896 47.3676 22.4583C47.3184 21.235 46.2985 20.2823 45.0657 20.3315C43.8423 20.3797 42.8906 21.41 42.9388 22.6333C43.119 27.1724 43.0078 31.6873 42.6086 36.054C42.4974 37.273 43.3958 38.3507 44.6139 38.4619Z" fill="#828282"/>
<path d="M107.161 101.793C107.003 100.982 106.829 100.161 106.436 99.4259C106.1 98.7957 105.618 98.2396 105.06 97.7956C103.82 96.8093 102.192 96.4067 100.635 96.7111L90.6736 98.6543L85.813 73.7424C94.3549 70.1922 98.5362 56.0431 95.4006 39.9731C92.116 23.1376 84.5612 9.97475 84.2422 9.42299C83.768 8.6057 82.8275 8.17809 81.9007 8.35913L60.5089 12.5327C59.5821 12.7137 58.8708 13.4638 58.7389 14.3992C58.6501 15.0311 56.5991 30.0682 59.8838 46.9029C63.0194 62.9728 72.2139 74.5123 81.4636 74.5916L86.3242 99.5035L76.3641 101.447C74.2899 101.851 72.5872 103.512 72.1078 105.567C71.8242 106.787 72.0121 108.093 72.3984 109.27C72.7743 110.415 73.5407 111.421 74.5442 112.089C75.7262 112.875 77.2047 113.173 78.5987 112.902L102.869 108.166C105.774 107.599 107.729 104.702 107.161 101.793ZM62.9521 16.5717L81.1549 13.0198C83.1301 16.7717 88.5054 27.7741 91.0512 40.8215C91.1642 41.3999 91.265 41.9767 91.3573 42.5517H63.6254C61.8374 30.87 62.5702 20.4107 62.9521 16.5717ZM102.659 103.393C102.573 103.522 102.375 103.747 102.021 103.816L77.7513 108.552C77.4452 108.612 77.1159 108.518 76.8857 108.308C76.6228 108.071 76.5693 107.73 76.5064 107.4C76.4409 107.062 76.346 106.704 76.4917 106.373C76.621 106.079 76.8978 105.857 77.2133 105.796L101.483 101.06C101.981 100.962 102.432 101.274 102.612 101.73C102.798 102.198 102.961 102.945 102.659 103.393ZM81.1308 70.15C79.2195 70.0353 77.4314 69.1602 75.9098 68.0412C74.3881 66.9222 73.0751 65.5359 71.9139 64.0513C71.2104 63.1513 70.5638 62.2072 69.9646 61.2348C68.8257 59.3881 67.7826 57.3095 66.8756 55.0534C65.823 52.4429 65.016 49.7341 64.4246 46.983H91.8677C92.1504 51.0152 91.9728 55.1396 91.0366 59.0829C90.7693 60.208 90.4357 61.3184 90.0227 62.3986C88.4675 66.4644 86.1328 69.1008 83.4034 69.8991C82.6671 70.112 81.8972 70.1948 81.1308 70.15Z" fill="#828282"/>
<path d="M58.2527 2.21565C58.2527 0.992302 57.2604 0 56.037 0C54.8128 0 53.8214 0.992302 53.8214 2.21565V9.41523C53.8214 10.6386 54.8128 11.6309 56.037 11.6309C57.2604 11.6309 58.2527 10.6386 58.2527 9.41523V2.21565Z" fill="#828282"/>
<path d="M47.0511 8.38514C47.4684 9.07225 48.1986 9.45159 48.9478 9.45159C49.3392 9.45159 49.7367 9.34727 50.0953 9.12915C51.141 8.49377 51.4747 7.13075 50.8393 6.085L48.1081 1.58817C47.4727 0.543283 46.1106 0.209642 45.064 0.845025C44.0182 1.48041 43.6854 2.84342 44.3208 3.88918L47.0511 8.38514Z" fill="#828282"/>
<path d="M62.4185 9.12905C62.7771 9.34716 63.1746 9.45148 63.566 9.45148C64.3151 9.45148 65.0454 9.07215 65.4626 8.38504L68.193 3.88907C68.8283 2.84332 68.4956 1.4803 67.4498 0.844921C66.4032 0.209537 65.041 0.542316 64.4057 1.58807L61.6753 6.0849C61.0391 7.13065 61.3727 8.49366 62.4185 9.12905Z" fill="#828282"/>
<path d="M79.6135 27.5913C80.4566 29.9017 81.2188 32.2433 81.886 34.6107C82.1498 35.5469 82.2947 36.5323 83.1973 37.0755C83.9913 37.5522 85.0302 37.4772 85.7458 36.8884C86.4174 36.3366 86.6915 35.4409 86.4794 34.6038C86.1889 33.4545 85.844 32.3157 85.4949 31.182C85.1345 30.0086 84.7517 28.8413 84.3491 27.6818C84.15 27.1076 83.9698 26.5153 83.7301 25.9567C83.5672 25.5748 83.2956 25.2437 82.9542 25.0083C82.174 24.4704 81.1084 24.4937 80.3523 25.067C79.5885 25.6489 79.2833 26.6895 79.6135 27.5913Z" fill="#828282"/>
<path d="M45.7942 45.032C45.7942 46.2605 44.7976 47.2572 43.569 47.2572C42.3397 47.2572 41.3439 46.2605 41.3439 45.032C41.3439 43.8026 42.3397 42.8069 43.569 42.8069C44.7976 42.8069 45.7942 43.8026 45.7942 45.032Z" fill="#828282"/>
<path d="M80.5816 18.664C80.5816 19.8926 79.585 20.8892 78.3565 20.8892C77.128 20.8892 76.1314 19.8926 76.1314 18.664C76.1314 17.4347 77.128 16.4389 78.3565 16.4389C79.585 16.4389 80.5816 17.4347 80.5816 18.664Z" fill="#828282"/>
</svg>
