<svg width="116" height="116" viewBox="0 0 116 116" fill="none" xmlns="http://www.w3.org/2000/svg">
<path d="M77.2984 0.250916C74.0481 0.250916 71.4138 2.88619 71.4138 6.13645C71.4138 9.38671 74.0481 12.021 77.2984 12.021C80.5487 12.021 83.1839 9.38671 83.1839 6.13645C83.1839 2.88619 80.5487 0.250916 77.2984 0.250916ZM77.2984 8.09829C76.215 8.09829 75.3365 7.21987 75.3365 6.13645C75.3365 5.05303 76.215 4.1746 77.2984 4.1746C78.3818 4.1746 79.2602 5.05303 79.2602 6.13645C79.2602 7.21987 78.3818 8.09829 77.2984 8.09829Z" fill="#828282"/>
<path d="M59.6428 10.0601C54.2257 10.0601 49.8345 14.4513 49.8345 19.8684C49.8345 25.2855 54.2257 29.6776 59.6428 29.6776C65.0599 29.6776 69.452 25.2855 69.452 19.8684C69.4453 14.4542 65.057 10.0659 59.6428 10.0601ZM59.6428 25.7539C56.3925 25.7539 53.7572 23.1187 53.7572 19.8684C53.7572 16.6181 56.3925 13.9829 59.6428 13.9829C62.893 13.9829 65.5283 16.6181 65.5283 19.8684C65.5283 23.1187 62.893 25.7539 59.6428 25.7539Z" fill="#828282"/>
<path d="M32.1788 13.983C27.8451 13.983 24.3315 17.4967 24.3315 21.8303C24.3315 26.164 27.8451 29.6777 32.1788 29.6777C36.5125 29.6777 40.0252 26.164 40.0252 21.8303C40.0252 17.4967 36.5125 13.983 32.1788 13.983ZM32.1788 25.754C30.011 25.754 28.2551 23.9972 28.2551 21.8303C28.2551 19.6635 30.011 17.9067 32.1788 17.9067C34.3457 17.9067 36.1016 19.6635 36.1016 21.8303C36.1016 23.9972 34.3447 25.754 32.1788 25.754Z" fill="#828282"/>
<path d="M20.4078 0.250916C17.1575 0.250916 14.5232 2.88619 14.5232 6.13645C14.5232 9.38671 17.1575 12.021 20.4078 12.021C23.658 12.021 26.2933 9.38671 26.2933 6.13645C26.2933 2.88619 23.658 0.250916 20.4078 0.250916ZM20.4078 8.09829C19.3243 8.09829 18.4459 7.21987 18.4459 6.13645C18.4459 5.05303 19.3243 4.1746 20.4078 4.1746C21.4912 4.1746 22.3696 5.05303 22.3696 6.13645C22.3696 7.21987 21.4912 8.09829 20.4078 8.09829Z" fill="#828282"/>
<path d="M68.0314 63.2742L71.7434 62.0117L84.4321 99.3039L80.7192 100.567L68.0314 63.2742Z" fill="#828282"/>
<path d="M57.9951 66.6779L61.7071 65.4144L74.3959 102.707L70.6829 103.97L57.9951 66.6779Z" fill="#828282"/>
<path d="M78.0667 59.8526L81.7796 58.5901L94.4636 95.8824L90.7516 97.1449L78.0667 59.8526Z" fill="#828282"/>
<path d="M115.406 72.7531L106.136 45.499C104.171 39.7207 97.8949 36.6295 92.1167 38.5942C92.1157 38.5951 92.1147 38.5951 92.1138 38.5951L86.7973 40.4037L86.4543 39.3921C83.9551 32.0295 75.9611 28.0866 68.5994 30.5859C65.9498 31.4844 63.6287 33.1522 61.9322 35.3765C58.5 35.1198 55.1481 36.5021 52.8941 39.1038C52.4707 38.9649 52.0387 38.8567 51.6 38.7781C50.1497 38.5262 48.6639 38.5664 47.2289 38.8959C41.6116 33.5181 32.7 33.7126 27.3221 39.3299C25.3919 41.3463 24.1035 43.8925 23.6236 46.6427L23.4387 47.6965L17.9066 46.7289C11.8947 45.6771 6.16909 49.6976 5.11633 55.7096V55.7115L0.164776 84.0663C-0.878412 90.0782 3.14107 95.8 9.14922 96.8575L14.6794 97.8241L14.5031 98.8328C11.819 99.4593 10.1512 102.143 10.7777 104.828C11.2337 106.778 12.8114 108.267 14.7857 108.61L56.5707 115.917C56.8552 115.968 57.1426 115.994 57.4299 115.994C59.3803 115.986 61.1467 114.843 61.9543 113.068C62.8269 113.267 63.7389 113.216 64.5847 112.922L104.748 99.2581C107.358 98.3701 108.754 95.5337 107.866 92.9233C107.222 91.0304 105.511 89.7046 103.518 89.5533L103.188 88.5867L108.502 86.7782C114.276 84.8058 117.364 78.5323 115.406 72.7531ZM83.3803 42.5131L84.0681 44.5372L70.5699 49.1295L69.8754 47.1054L83.3803 42.5131ZM50.735 44.0094C51.5617 43.7287 52.4334 43.6042 53.306 43.6434C54.0235 43.6789 54.7008 43.3168 55.0696 42.7018L55.0763 42.7037C56.6157 40.1556 59.5805 38.8385 62.5032 39.4036C63.2982 39.556 64.1058 39.2053 64.5359 38.5185C65.7639 36.5433 67.6405 35.0565 69.8438 34.3113C74.438 32.7546 79.4921 34.66 81.9147 38.8624L66.7468 44.0237C65.7237 44.3753 65.1786 45.4894 65.5283 46.5134L68.4548 55.1195C68.8667 56.4855 68.0917 57.9262 66.7257 58.3381C65.4277 58.729 64.0483 58.0498 63.5665 56.7824L62.5855 53.9144C62.2704 52.8779 61.1735 52.2936 60.1371 52.6097C59.1006 52.9258 58.5162 54.0217 58.8324 55.0582C58.8448 55.0994 58.8582 55.1396 58.8735 55.1798C59.3084 56.5391 58.5584 57.9933 57.1991 58.4272C55.8743 58.8506 54.4517 58.1485 53.9814 56.839L52.0195 51.1009C51.6699 50.0769 50.5568 49.529 49.5318 49.8767L45.9443 51.0971C45.7834 47.9312 47.7366 45.0411 50.735 44.0094ZM49.6362 56.2594L47.6111 56.9472L46.9253 54.9231L48.9475 54.2363L49.6362 56.2594ZM39.2522 39.0588L39.258 39.0607C41.5551 39.4535 43.6424 40.6327 45.1655 42.3953C45.268 42.5064 45.3849 42.605 45.5104 42.6893C43.9815 44.1224 42.8885 45.9588 42.3578 47.9867L28.0368 45.4223C29.7802 40.899 34.475 38.235 39.2522 39.0588ZM27.1564 49.2694L42.0599 51.9334C42.1375 52.6748 42.2917 53.4057 42.5188 54.1146L26.7895 51.3682L27.1564 49.2694ZM9.81498 92.9923C5.94302 92.3045 3.35756 88.6155 4.02907 84.7416L8.9902 56.3849C9.66554 52.5091 13.3545 49.9141 17.2303 50.5894C17.2342 50.5904 17.238 50.5904 17.2418 50.5913L22.7701 51.5569L22.4032 53.6634L18.3655 52.9574C14.8259 52.3376 11.454 54.7056 10.8342 58.2452C10.8333 58.2481 10.8333 58.2509 10.8323 58.2538L6.39516 83.6256C5.77826 87.1671 8.1501 90.539 11.6916 91.1569L15.7293 91.8629L15.3624 93.9694L9.81498 92.9923ZM21.7259 57.5287L16.3998 87.9899L12.3592 87.284C10.9549 87.0378 10.0152 85.6995 10.2614 84.2952C10.2614 84.2952 10.2623 84.2952 10.2623 84.2942L14.6995 58.9215C14.9495 57.5181 16.2849 56.5813 17.6892 56.8217L21.7259 57.5287ZM58.4865 111.183C58.384 111.765 57.8294 112.154 57.2479 112.051V112.055L15.462 104.745C14.8777 104.664 14.4696 104.123 14.551 103.539C14.6334 102.954 15.1737 102.546 15.758 102.628C15.7829 102.631 15.8068 102.636 15.8308 102.641C16.8989 102.826 17.9143 102.113 18.1011 101.046L26.1171 55.2172L43.949 58.3362L57.6206 98.5349L56.0218 107.674C55.9317 108.187 56.0496 108.714 56.3494 109.14C56.6492 109.565 57.1052 109.855 57.6187 109.944C58.2001 110.046 58.589 110.601 58.4865 111.183ZM104.153 94.1878C104.344 94.7453 104.047 95.3517 103.489 95.5423C103.488 95.5423 103.488 95.5432 103.488 95.5432L63.3251 109.208C62.7656 109.4 62.1583 109.102 61.9667 108.542C61.7751 107.983 62.073 107.376 62.6325 107.184C63.6584 106.835 64.2073 105.721 63.8586 104.695V104.694L48.8766 60.6515L51.2149 59.8564C53.33 62.7465 57.3868 63.3749 60.276 61.2598C60.6275 61.0031 60.9523 60.7109 61.2454 60.3881C61.7866 60.9657 62.4265 61.4399 63.1363 61.7895C66.3607 63.3759 70.2614 62.0482 71.8487 58.8238C72.6103 57.2758 72.7262 55.4892 72.1706 53.856L71.8257 52.8453L85.3259 48.2511L100.31 92.2939C100.659 93.3199 101.772 93.8697 102.799 93.522C102.8 93.521 102.8 93.521 102.801 93.5201C103.358 93.3333 103.962 93.6312 104.153 94.1878ZM90.0169 49.8518L93.8965 48.5318C95.2462 48.072 96.7138 48.7933 97.1736 50.143C97.1736 50.144 97.1745 50.1459 97.1745 50.1478L105.471 74.531C105.929 75.8817 105.207 77.3483 103.857 77.809L99.9765 79.1291L90.0169 49.8518ZM107.242 83.0566L101.929 84.8652L101.232 82.8411L105.114 81.5201C108.514 80.3581 110.331 76.6653 109.177 73.2637L100.879 48.8785C99.7159 45.4817 96.025 43.6645 92.6234 44.814L88.7438 46.1341L88.0569 44.1119L93.385 42.311C97.1132 41.0427 101.163 43.0361 102.433 46.7644L111.696 74.0128C112.958 77.7391 110.966 81.7845 107.242 83.0566Z" fill="#828282"/>
<path d="M34.8534 105.528L41.6403 66.7268L45.5056 67.4031L38.7177 106.204L34.8534 105.528Z" fill="#828282"/>
<path d="M45.3169 107.365L49.1218 84.2885L52.9918 84.9264L49.186 108.003L45.3169 107.365Z" fill="#828282"/>
<path d="M24.4263 103.692L31.2132 64.8873L35.0785 65.5627L28.2906 104.368L24.4263 103.692Z" fill="#828282"/>
</svg>
