<svg width="222" height="219" viewBox="0 0 222 219" fill="none" xmlns="http://www.w3.org/2000/svg">
<g filter="url(#filter0_d)">
<ellipse cx="108.502" cy="111.026" rx="91.5377" ry="87.037" fill="#F2F2F2"/>
<g filter="url(#filter1_d)">
<path d="M98.8665 195.366C56.5149 190.647 23.8708 158.753 20.0938 118.404C16.0605 75.3168 47.3743 36.1916 92.4433 28.0061C100.765 26.4948 116.768 26.4948 125.09 28.0061C154.9 33.4202 180.12 52.9261 191.161 79.1064C203.713 108.87 198.249 141.339 176.499 166.238C165.012 179.387 146.124 190.104 127.822 193.858C119.682 195.528 106.484 196.215 98.8665 195.366ZM132.833 166.792C132.547 166.16 131.814 164.458 131.205 163.011L130.096 160.379L130.59 163.011C130.862 164.458 131.112 166.786 131.147 168.183C131.206 170.507 131.302 170.605 132.282 169.333C132.871 168.568 133.119 167.424 132.833 166.792ZM81.0465 166.682C81.0465 166.268 80.6901 166.139 80.2545 166.395C79.8189 166.65 79.4625 167.198 79.4625 167.611C79.4625 168.025 79.8189 168.154 80.2545 167.899C80.6901 167.643 81.0465 167.095 81.0465 166.682ZM48.1624 166.746C47.8843 166.319 48.4073 164.711 49.3245 163.174L50.9922 160.379L48.9913 162.489C46.9632 164.627 46.2948 167.523 47.8292 167.523C48.2906 167.523 48.4405 167.173 48.1624 166.746ZM54.8428 166.667C55.3037 167.375 55.6867 167.319 56.4634 166.43C57.313 165.458 57.2602 165.267 56.1425 165.267C55.1257 165.267 55.5232 164.434 57.7978 161.798C59.4442 159.89 60.9273 158.717 61.0937 159.191C61.2601 159.665 60.9663 160.545 60.4408 161.146C59.9153 161.748 59.6765 162.713 59.9101 163.291C60.1438 163.869 59.8071 165.058 59.1618 165.932C58.5166 166.807 58.3217 167.523 58.7286 167.523C59.9559 167.523 61.3766 165.446 61.142 163.995C61.021 163.247 61.3439 161.909 61.8596 161.022C62.6167 159.719 62.5671 159.227 61.6019 158.467C60.6023 157.679 59.9487 158.005 57.612 160.456C53.7802 164.475 50.928 168.265 52.8238 166.819C53.9236 165.98 54.3738 165.946 54.8428 166.667ZM64.104 166.207C65.7106 164.197 65.4041 163.36 63.6225 164.891C62.071 166.224 61.5394 167.523 62.5452 167.523C62.8239 167.523 63.5253 166.93 64.104 166.207ZM69.6517 163.973C69.3136 163.652 68.5315 164.045 67.9137 164.848C66.169 167.113 66.5911 168.046 68.5285 166.207C69.4844 165.299 69.9899 164.294 69.6517 163.973ZM73.9185 166.432C73.9185 165.832 74.5422 164.996 75.3045 164.575C76.4454 163.944 76.4734 163.804 75.4629 163.785C74.7877 163.773 73.8076 164.169 73.2849 164.665C72.1316 165.76 72.0339 167.523 73.1265 167.523C73.5621 167.523 73.9185 167.032 73.9185 166.432ZM77.7344 165.643C78.7761 163.472 78.1426 163.155 76.605 165.079C75.3854 166.604 75.2209 167.523 76.1674 167.523C76.5331 167.523 77.2382 166.677 77.7344 165.643ZM92.6021 160.191C94.1481 158.433 95.0447 156.995 94.5946 156.995C93.5303 156.995 85.7908 165.821 85.8235 166.998C85.8373 167.493 86.7356 166.883 87.8198 165.643C88.904 164.402 91.0561 161.948 92.6021 160.191ZM92.5758 165.197C92.867 164.75 92.7087 164.007 92.2239 163.547C91.5767 162.932 91.3425 162.984 91.3425 163.741C91.3425 164.308 90.7188 165.44 89.9565 166.257C88.6138 167.695 88.6248 167.714 90.3084 166.876C91.2642 166.4 92.2846 165.644 92.5758 165.197ZM95.03 165.637C96.1001 163.446 94.9555 163.072 93.7464 165.217C92.7732 166.944 92.7162 167.525 93.5205 167.517C93.8472 167.514 94.5265 166.668 95.03 165.637ZM98.7746 166.207C99.0435 165.483 99.4936 164.383 99.7747 163.763C100.13 162.979 99.7668 163.072 98.5862 164.067C96.8728 165.511 96.2907 167.523 97.5861 167.523C97.9709 167.523 98.5058 166.93 98.7746 166.207ZM102.12 166.902C101.898 166.561 103.535 164.107 105.758 161.45L109.799 156.619L105.323 160.729C101.223 164.494 99.6009 167.523 101.685 167.523C102.147 167.523 102.342 167.243 102.12 166.902ZM108.607 165.336C109.168 164.133 111.067 161.595 112.828 159.696C114.589 157.796 115.699 156.243 115.294 156.243C114.217 156.243 106.39 165.232 106.39 166.469C106.39 168.232 107.528 167.65 108.607 165.336ZM113.948 166.823C113.698 166.438 113.855 165.91 114.298 165.65C115.555 164.912 115.241 163.759 113.915 164.243C112.572 164.732 112.275 167.523 113.565 167.523C114.027 167.523 114.199 167.208 113.948 166.823ZM124.037 160.202C125.38 158.864 126.269 157.571 126.014 157.328C125.298 156.648 117.388 166.023 117.95 166.886C118.222 167.305 119.154 166.52 120.021 165.141C120.887 163.763 122.695 161.54 124.037 160.202ZM128.227 166.06C128.227 164.961 127.977 164.795 127.218 165.393C126.662 165.831 126.403 166.489 126.642 166.856C127.39 168.005 128.227 167.585 128.227 166.06ZM143.086 165.729C144.748 163.321 143.791 162.594 141.925 164.847C140.294 166.816 140.088 167.523 141.147 167.523C141.533 167.523 142.405 166.715 143.086 165.729ZM149.463 166.207C149.732 165.483 150.182 164.383 150.463 163.763C150.818 162.979 150.455 163.072 149.274 164.067C147.561 165.511 146.979 167.523 148.274 167.523C148.659 167.523 149.194 166.93 149.463 166.207ZM154.685 163.548C154.695 163.223 153.99 163.32 153.118 163.763C152.247 164.205 151.542 165.317 151.552 166.233C151.57 167.881 151.586 167.879 153.118 166.019C153.97 164.985 154.675 163.873 154.685 163.548ZM158.442 165.531C159.443 163.484 159.18 162.259 157.739 162.259C157.283 162.259 157.11 162.755 157.355 163.363C157.601 163.97 157.46 164.666 157.044 164.911C156.151 165.435 156.019 167.525 156.88 167.517C157.207 167.514 157.91 166.62 158.442 165.531ZM163.422 165.267C164.434 163.392 164.433 163.39 162.756 164.803C161.832 165.582 161.281 166.535 161.532 166.921C162.068 167.744 162.101 167.715 163.422 165.267ZM168.18 164.891C168.754 164.891 169.315 164.459 169.427 163.932C169.556 163.328 169.472 163.29 169.199 163.829C168.913 164.396 168.597 164.424 168.264 163.912C167.382 162.558 164.714 164.995 165.38 166.547C165.922 167.81 165.999 167.8 166.549 166.395C166.873 165.567 167.607 164.891 168.18 164.891ZM71.8289 164.891C72.0796 164.27 71.9396 163.763 71.5176 163.763C71.0957 163.763 70.7505 164.27 70.7505 164.891C70.7505 165.511 70.8906 166.019 71.0618 166.019C71.233 166.019 71.5782 165.511 71.8289 164.891ZM105.885 164.891C106.136 164.27 105.996 163.763 105.574 163.763C105.152 163.763 104.806 164.27 104.806 164.891C104.806 165.511 104.947 166.019 105.118 166.019C105.289 166.019 105.634 165.511 105.885 164.891ZM111.934 164.47C111.934 164.081 111.578 163.763 111.142 163.763C110.707 163.763 110.35 164.29 110.35 164.935C110.35 165.58 110.707 165.898 111.142 165.643C111.578 165.387 111.934 164.859 111.934 164.47ZM117.326 163.367C117.082 163.135 116.639 163.553 116.341 164.294C115.912 165.366 116.003 165.452 116.785 164.715C117.326 164.205 117.569 163.598 117.326 163.367ZM146.782 163.674C146.782 163.26 146.426 163.131 145.99 163.387C145.555 163.642 145.198 164.19 145.198 164.603C145.198 165.017 145.555 165.146 145.99 164.891C146.426 164.635 146.782 164.087 146.782 163.674ZM163.018 163.011C163.288 162.597 163.131 162.259 162.669 162.259C162.208 162.259 161.83 162.597 161.83 163.011C161.83 163.424 161.988 163.763 162.18 163.763C162.372 163.763 162.749 163.424 163.018 163.011ZM138.862 160.755C138.862 160.341 138.506 160.003 138.07 160.003C137.635 160.003 137.278 160.341 137.278 160.755C137.278 161.168 137.635 161.507 138.07 161.507C138.506 161.507 138.862 161.168 138.862 160.755ZM119.734 155.315C119.567 154.639 118.922 155.252 118.099 156.866L116.74 159.534L118.374 157.982C119.273 157.129 119.885 155.928 119.734 155.315ZM77.9405 150.773C81.7929 148.308 84.2145 144.542 84.2145 141.017C84.2145 134.198 79.007 129.168 71.9526 129.173C61.1882 129.181 55.5136 140.3 62.172 148.337C65.7255 152.626 73.2315 153.786 77.9405 150.773ZM68.8949 144.169C66.3695 142.283 66.1579 139.547 68.3745 137.443C71.4919 134.483 76.2945 136.505 76.2945 140.777C76.2945 144.908 72.3219 146.729 68.8949 144.169ZM103.724 151.257C107.554 149.531 108.766 147.526 108.766 142.915V138.947H104.41C100.126 138.947 100.054 138.983 100.054 141.14C100.054 142.346 100.499 143.474 101.042 143.646C101.658 143.841 101.379 144.29 100.302 144.837C96.3689 146.836 91.9997 142.887 93.7373 138.903C94.7826 136.507 96.8418 135.576 99.6271 136.24C101.075 136.585 101.913 136.114 103.61 134.002C104.792 132.531 105.633 131.227 105.48 131.103C102.559 128.741 95.2579 128.514 91.5333 130.671C87.3775 133.076 85.663 136.351 85.9928 141.252C86.178 144.003 86.8625 146.221 87.9913 147.726C91.3429 152.196 98.2169 153.738 103.724 151.257ZM51.6862 150.413C57.4292 147.633 59.4505 141.733 56.69 135.807C54.5776 131.273 51.0147 129.652 43.0305 129.591L37.0905 129.547L36.8713 140.639L36.6522 151.731L42.8113 151.729C47.1097 151.728 49.791 151.331 51.6862 150.413ZM44.6145 140.827C44.6145 136.577 44.8053 135.939 46.0758 135.939C49.9487 135.939 51.6819 142.36 48.3983 144.544C45.1999 146.671 44.6145 146.096 44.6145 140.827ZM132.777 150.856C133.728 150.375 134.941 149.444 135.471 148.788C136.816 147.125 136.722 142.696 135.311 141.216C134.336 140.193 134.3 139.568 135.1 137.556C135.897 135.552 135.856 134.776 134.866 133.101C133.12 130.148 130.479 129.194 124.012 129.182L118.27 129.171V140.451V151.731H124.659C128.172 151.731 131.825 151.337 132.777 150.856ZM125.398 144.587C125.398 142.615 126.831 142.112 128.346 143.55C129.577 144.719 128.709 146.467 126.898 146.467C125.827 146.467 125.398 145.93 125.398 144.587ZM125.538 136.275C125.897 134.641 127.302 134.542 127.624 136.127C127.791 136.95 127.402 137.443 126.586 137.443C125.826 137.443 125.389 136.956 125.538 136.275ZM144.01 150.979C144.28 150.565 146.062 150.227 147.97 150.227C149.879 150.227 151.661 150.565 151.93 150.979C152.2 151.392 154.027 151.731 155.991 151.731C160.177 151.731 160.306 152.977 154.665 138.947L150.886 129.547H147.924H144.961L140.724 140.056C138.393 145.836 136.486 150.828 136.486 151.148C136.486 152.012 143.44 151.855 144.01 150.979ZM146.782 143.879C146.782 142.288 148.123 141.772 148.679 143.148C149.357 144.825 149.303 144.963 147.97 144.963C147.317 144.963 146.782 144.475 146.782 143.879ZM168.169 149.287L168.173 146.843L169.742 149.287C171.207 151.568 171.601 151.731 175.679 151.731C178.081 151.731 180.047 151.596 180.047 151.431C180.047 151.267 179.172 149.669 178.102 147.881C176.322 144.906 176.263 144.52 177.404 143.323C178.089 142.604 178.821 140.564 179.03 138.789C179.742 132.733 174.702 129.171 165.42 129.171H160.246V140.451V151.731H164.206C168.146 151.731 168.166 151.718 168.169 149.287ZM168.166 137.792C168.166 135.367 168.305 135.204 169.75 135.939C171.642 136.9 171.842 139.353 170.081 139.994C168.194 140.682 168.166 140.65 168.166 137.792ZM117.318 133.119L117.554 128.419H122.232H126.911L127.429 125.792C127.715 124.348 127.742 122.656 127.49 122.032C126.969 120.742 127.797 120.683 133.641 121.594C135.778 121.927 138.146 122.046 138.903 121.858C141.316 121.259 147.488 111.907 147.562 108.737C147.569 108.459 146.339 107.844 144.83 107.371C143.321 106.898 140.996 105.544 139.663 104.363C136.996 101.997 135.35 102.079 130.377 104.825C127.929 106.177 127.683 106.181 123.935 104.917C118.936 103.231 119.062 103.206 119.062 105.883C119.062 108.888 117.088 113.28 115.472 113.868C114.693 114.152 112.795 113.406 110.661 111.978C108.722 110.68 106.752 109.619 106.283 109.619C105.815 109.619 104.372 110.465 103.078 111.499C101.784 112.533 99.8702 113.379 98.8259 113.379C96.2878 113.379 94.2631 109.671 94.6575 105.745C94.8821 103.508 94.697 102.91 93.8733 103.21C93.2802 103.426 89.2899 103.821 85.0058 104.088L77.2165 104.573L76.3579 107.81C75.5223 110.961 72.5151 113.937 68.9683 115.124C67.1903 115.719 67.2198 116.547 69.0974 118.747C70.4703 120.356 71.2319 120.523 77.2154 120.523H83.8183L84.8003 126.163C86.1601 133.972 86.3076 134.227 88.1703 131.978C91.6718 127.752 100.679 126.598 104.892 129.837L106.629 131.173L104.53 134.106C103.375 135.72 102.43 137.312 102.43 137.645C102.43 137.979 105.727 138.154 109.756 138.035L117.082 137.819L117.318 133.119ZM105.598 125.035C105.598 124.26 106.117 123.891 106.984 124.05C108.654 124.355 108.548 125.69 106.828 126.03C106.111 126.172 105.598 125.757 105.598 125.035ZM70.4863 118.141C69.5217 117.225 69.9405 115.635 71.1463 115.635C71.8063 115.635 72.3343 116.303 72.3343 117.139C72.3343 118.637 71.4904 119.095 70.4863 118.141ZM106.105 115.865C105.158 114.966 105.593 113.379 106.786 113.379C107.44 113.379 107.974 113.866 107.974 114.462C107.974 115.719 106.844 116.567 106.105 115.865ZM142.822 110.433C142.822 109.51 143.334 108.867 144.068 108.867C144.806 108.867 145.21 109.378 145.058 110.12C144.673 112.007 142.822 112.266 142.822 110.433ZM71.9988 111.686C74.0744 109.88 74.923 108.428 75.2483 106.125C75.6279 103.438 75.463 102.94 74.052 102.515C73.1518 102.244 72.1943 101.36 71.9241 100.552C71.6539 99.7438 70.6207 98.1538 69.628 97.0186C68.6354 95.8834 67.584 94.024 67.2917 92.8866C66.1574 88.4736 63.1424 92.1789 63.9526 96.9902C64.2565 98.7943 64.1567 99.7802 63.6976 99.5108C63.2829 99.2675 62.829 99.8348 62.6889 100.771C62.5122 101.954 61.5863 102.741 59.6623 103.345C57.8869 103.903 57.3174 104.355 58.0783 104.602C58.7317 104.814 59.8009 105.157 60.4543 105.364C61.348 105.647 61.286 105.755 60.2042 105.799C58.4026 105.874 55.7023 104.54 55.7023 103.576C55.7023 103.177 56.7279 102.851 57.9813 102.851C59.2348 102.851 60.6155 102.428 61.0496 101.911C62.0026 100.776 63.7472 91.6189 63.1772 90.7433C62.4666 89.6515 57.1261 88.5911 55.7809 89.2747C55.0773 89.6322 53.3482 91.9648 51.9385 94.4582C49.6644 98.4804 49.5088 99.1185 50.5588 100.115C52.3451 101.812 52.0864 102.001 47.6466 102.247C40.0761 102.667 42.7401 105.039 52.1383 106.245C57.7768 106.969 61.2607 108.541 63.856 111.53C66.6659 114.767 68.4199 114.8 71.9988 111.686ZM62.907 106.287C63.1343 106.071 64.7247 105.613 66.4413 105.268L69.5623 104.642L67.2448 103.558C65.9701 102.962 64.7828 102.053 64.6062 101.539C64.4296 101.024 65.7446 101.51 67.5284 102.619C69.3122 103.728 70.4996 104.867 70.167 105.151C69.464 105.75 62.2899 106.873 62.907 106.287ZM186.382 110.411C186.382 108.587 181.787 107.412 180.765 108.974C180.381 109.56 180.423 110.101 180.864 110.245C181.285 110.383 181.63 111.322 181.63 112.333C181.63 114.131 181.679 114.145 184.006 113.003C185.378 112.329 186.382 111.234 186.382 110.411ZM117.027 110.282C118.08 107.784 118.161 106.695 117.448 104.642C116.961 103.243 116.399 102.099 116.197 102.099C115.996 102.099 114.42 102.782 112.695 103.618C110.553 104.655 109.524 105.669 109.45 106.814L109.343 108.491L108.999 106.799C108.481 104.246 104.806 104.41 104.806 106.987C104.806 108.479 105.205 108.867 106.74 108.867C107.803 108.867 108.911 109.232 109.202 109.68C109.765 110.545 114.362 113.371 115.214 113.376C115.494 113.377 116.309 111.985 117.027 110.282ZM101.714 111.336C103.588 110.285 104.014 109.535 104.014 107.286C104.014 104.886 103.663 104.368 101.321 103.312C99.8391 102.645 98.0986 102.099 97.453 102.099C95.3775 102.099 94.6225 107.379 96.2214 110.711C97.2999 112.959 98.5652 113.103 101.714 111.336ZM179.078 109.2C181.469 107.61 181.458 103.659 179.056 101.544C178.076 100.681 175.145 99.0235 172.543 97.8611C166.926 95.3515 157.843 86.839 150.987 77.6586C144.715 69.2593 143.667 68.2587 141.145 68.2587C136.999 68.2587 135.175 73.4461 137.695 78.072C138.941 80.36 139.99 80.8487 140.842 79.5386C141.473 78.5693 146.451 78.5652 148.354 79.5323C150.895 80.8236 164.441 96.9702 165.552 100.032C166.434 102.464 166.437 103.3 165.566 104.973C164.555 106.916 164.631 107.045 167.728 108.645C171.509 110.597 176.602 110.847 179.078 109.2ZM154.325 106.583C154.604 106.153 153.703 104.715 152.323 103.387C148.36 99.5708 147.294 97.0201 147.383 91.5706C147.488 85.1699 147.069 83.9055 144.94 84.1948C141.584 84.6507 140.186 90.3772 141.641 97.7083C142.107 100.055 141.934 100.591 140.474 101.333C139.017 102.073 138.916 102.383 139.801 103.398C142.42 106.404 152.94 108.71 154.325 106.583ZM164.178 105.908C165.26 103.99 165.219 100.893 164.086 98.8532C161.862 94.8493 148.178 80.2744 146.201 79.8032C142.861 79.0075 140.097 80.9347 139.804 84.2623C139.544 87.2211 140.785 88.0964 141.635 85.5538C142.36 83.3848 144.826 82.3044 146.782 83.2986C148.167 84.0022 148.366 84.8732 148.366 90.215C148.366 95.4323 148.666 96.8123 150.416 99.6469C152.629 103.233 158.594 107.363 161.561 107.363C162.55 107.363 163.728 106.708 164.178 105.908ZM112.687 102.28C114.989 100.51 114.193 98.8559 110.219 97.1542C107.092 95.8155 106.941 95.8178 104.137 97.248C98.6862 100.028 100.435 103.603 107.246 103.603C109.617 103.603 111.591 103.123 112.687 102.28ZM95.4662 101.43C96.4842 101.063 98.8606 99.5379 100.747 98.0414C105.319 94.4142 107.187 94.0719 111.9 95.997C116.735 97.9718 119.148 98.0029 121.549 96.1212L123.418 94.6558L121.614 91.6116L119.81 88.5673L123.007 87.3526C126.731 85.938 127.773 83.5445 126.221 79.97C124.137 75.1707 124.266 73.8548 127.004 72.0037C129.541 70.289 129.549 70.2604 129.164 64.9463C128.769 59.504 124.899 48.8513 123.738 50.0106C123.42 50.3274 122.011 53.4631 120.606 56.9787C119.201 60.4943 117.938 63.4974 117.799 63.6522C117.659 63.8071 116.45 63.0592 115.112 61.9901C110.937 58.6544 104.941 58.6825 99.4664 62.0634C98.4897 62.6665 97.2059 62.9834 96.6136 62.7676C96.0212 62.5518 94.3535 59.5884 92.9075 56.1823L90.2783 49.9894L88.8376 51.6788C87.0191 53.8111 85.0984 59.8492 84.479 65.3809C84.0459 69.2496 84.1837 69.8101 85.9589 71.3969C88.5763 73.7364 89.0435 75.9149 87.9929 80.8817C87.1388 84.9199 87.1737 85.0859 89.2281 86.7638C91.7379 88.8136 91.8579 90.7948 89.7409 95.2248C87.8524 99.1764 87.8388 99.4167 89.4189 100.917C90.8222 102.249 92.7453 102.413 95.4662 101.43ZM106.781 88.9863C106.566 88.3397 106.223 87.303 106.019 86.6826C105.564 85.2992 104.014 85.183 104.014 86.5322C104.014 87.0699 104.46 87.9446 105.004 88.4759C105.804 89.2568 105.615 89.3937 104.014 89.1903C102.33 88.9762 102.034 88.5457 102.034 86.3066C102.034 83.898 102.282 83.6165 104.957 82.989C106.751 82.5681 108.892 82.579 110.501 83.0171C112.819 83.6482 113.122 84.0326 113.122 86.3348C113.122 88.4625 112.796 88.9826 111.34 89.1789C109.511 89.4256 108.818 88.1704 110.491 87.6409C111.003 87.4787 111.16 86.9429 110.84 86.4503C109.863 84.9504 108.766 85.4478 108.766 87.3903C108.766 89.5466 107.346 90.6884 106.781 88.9863ZM94.0841 80.8327C91.9938 79.1256 90.2483 73.6409 91.1137 71.4996C91.854 69.6678 95.0378 69.3346 104.014 70.1498C107.812 70.4947 111.168 70.3761 113.32 69.8209C115.776 69.1874 117.543 69.1717 119.854 69.7626C122.917 70.5456 123.022 70.6782 123.011 73.7396C122.988 79.885 119.268 83.3229 114.388 81.7077C111.872 80.875 110.226 78.6706 109.258 74.8386C108.605 72.2536 105.932 72.0057 105.203 74.4626C103.946 78.6933 102.84 80.4397 100.774 81.4541C97.7369 82.9453 96.5339 82.8336 94.0841 80.8327ZM96.0836 78.7677C95.5716 77.8593 95.2848 75.7999 95.4464 74.1913C95.6489 72.175 95.4262 71.2667 94.7292 71.2667C93.2511 71.2667 93.4428 77.3266 94.987 79.42C96.544 81.5305 97.3655 81.042 96.0836 78.7677ZM114.455 77.8717C113.94 77.3823 113.518 76.0061 113.518 74.8136C113.518 73.4024 113.173 72.7618 112.528 72.9789C111.984 73.1623 111.636 74.1031 111.755 75.0695C111.983 76.9218 114.273 79.8244 114.979 79.1547C115.206 78.9385 114.971 78.3611 114.455 77.8717ZM176.086 96.5124C176.086 95.0974 174.681 93.8227 169.926 90.9258C167.659 89.5446 164.623 86.6726 162.75 84.137C160.965 81.7199 158.614 79.1888 157.527 78.5125C155.444 77.2169 152.326 76.8512 152.326 77.9025C152.326 79.1022 166.554 93.3762 169.835 95.4687C173.445 97.7706 176.086 98.2116 176.086 96.5124ZM64.4145 88.0645C64.4145 87.3769 65.5387 85.1509 66.9127 83.1178C69.8589 78.7585 70.3931 75.1367 69.59 64.9661L69.0273 57.8405L65.9289 57.3435C64.2248 57.0701 61.4049 57.0751 59.6625 57.3546L56.4945 57.8628V67.7894C56.4945 76.8851 56.6558 77.9968 58.4219 81.0713C59.482 82.9167 60.9124 85.5264 61.6006 86.8706C62.9402 89.4875 64.4145 90.113 64.4145 88.0645ZM60.8992 77.8765C59.9062 74.7588 59.3765 58.4827 60.2681 58.4827C60.7824 58.4827 61.2077 62.3603 61.402 68.8226C61.573 74.5096 61.6533 79.2607 61.5803 79.3805C61.5074 79.5003 61.2009 78.8235 60.8992 77.8765ZM138.862 65.2639V63.1099L136.377 64.287L133.893 65.4641L135.761 66.8025C138.065 68.4523 138.862 68.0566 138.862 65.2639Z" fill="black"/>
<path d="M163.562 154.846H50.1516C46.3043 154.846 43.1853 157.808 43.1853 161.461V164.259C43.1853 167.912 46.3043 170.874 50.1516 170.874H163.562C167.409 170.874 170.528 167.912 170.528 164.259V161.461C170.528 157.808 167.409 154.846 163.562 154.846Z" fill="black"/>
</g>
</g>
<defs>
<filter id="filter0_d" x="0" y="0" width="222" height="219" filterUnits="userSpaceOnUse" color-interpolation-filters="sRGB">
<feFlood flood-opacity="0" result="BackgroundImageFix"/>
<feColorMatrix in="SourceAlpha" type="matrix" values="0 0 0 0 0 0 0 0 0 0 0 0 0 0 0 0 0 0 127 0"/>
<feOffset dy="-1"/>
<feGaussianBlur stdDeviation="5"/>
<feColorMatrix type="matrix" values="0 0 0 0 0.741176 0 0 0 0 0.741176 0 0 0 0 0.741176 0 0 0 1 0"/>
<feBlend mode="normal" in2="BackgroundImageFix" result="effect1_dropShadow"/>
<feBlend mode="normal" in="SourceGraphic" in2="effect1_dropShadow" result="shape"/>
</filter>
<filter id="filter1_d" x="7" y="20" width="204" height="194" filterUnits="userSpaceOnUse" color-interpolation-filters="sRGB">
<feFlood flood-opacity="0" result="BackgroundImageFix"/>
<feColorMatrix in="SourceAlpha" type="matrix" values="0 0 0 0 0 0 0 0 0 0 0 0 0 0 0 0 0 0 127 0"/>
<feOffset dy="1"/>
<feGaussianBlur stdDeviation="1.5"/>
<feColorMatrix type="matrix" values="0 0 0 0 0.878431 0 0 0 0 0.878431 0 0 0 0 0.878431 0 0 0 1 0"/>
<feBlend mode="normal" in2="BackgroundImageFix" result="effect1_dropShadow"/>
<feBlend mode="normal" in="SourceGraphic" in2="effect1_dropShadow" result="shape"/>
</filter>
</defs>
</svg>
