<?xml version="1.0" standalone="no"?>
<!DOCTYPE svg PUBLIC "-//W3C//DTD SVG 20010904//EN"
 "http://www.w3.org/TR/2001/REC-SVG-20010904/DTD/svg10.dtd">
<svg version="1.0" xmlns="http://www.w3.org/2000/svg"
 width="1280.000000pt" height="1280.000000pt" viewBox="0 0 1280.000000 1280.000000"
 preserveAspectRatio="xMidYMid meet">
<g transform="translate(0.000000,1280.000000) scale(0.100000,-0.100000)"
fill="#000000" stroke="none">
<path d="M2479 12009 c-87 -13 -312 -66 -397 -95 -284 -94 -596 -324 -786
-578 -177 -236 -246 -384 -311 -666 -19 -80 -39 -189 -44 -242 -15 -133 -15
-7896 -1 -8022 24 -209 99 -472 179 -630 105 -206 294 -437 466 -571 230 -179
389 -258 654 -325 258 -65 -91 -60 4296 -60 4372 0 4031 -5 4290 59 230 57
372 121 569 259 234 164 428 390 556 647 92 185 158 422 180 647 7 69 10 1412
7 4058 -3 3717 -4 3960 -20 4040 -73 350 -141 521 -304 752 -104 149 -224 273
-364 377 -217 163 -371 237 -609 297 -279 69 80 64 -4320 63 -2192 -1 -4010
-5 -4041 -10z m7354 -1429 c260 -30 537 -213 677 -448 57 -97 107 -225 120
-307 7 -49 10 -1075 8 -3425 l-3 -3355 -29 -75 c-102 -269 -258 -450 -481
-560 -123 -60 -177 -78 -274 -91 -50 -6 -1237 -9 -3401 -7 l-3325 3 -104 37
c-304 109 -510 316 -618 623 l-28 80 0 3390 0 3390 23 70 c57 169 135 295 254
411 91 89 164 140 272 189 101 45 166 65 244 75 103 12 6560 12 6665 0z"/>
<path d="M6475 9364 c-27 -2 -108 -9 -180 -14 -929 -77 -1767 -745 -1994
-1592 -54 -203 -65 -298 -65 -573 0 -227 2 -275 22 -380 12 -66 30 -142 38
-170 76 -245 203 -432 377 -555 100 -72 297 -156 405 -175 58 -9 82 9 120 87
58 120 77 194 76 303 0 133 -17 181 -141 395 -78 134 -102 205 -114 344 -40
438 116 844 453 1178 241 238 557 399 923 469 107 21 399 18 505 -5 242 -52
443 -151 619 -305 155 -136 266 -325 326 -556 12 -46 17 -75 45 -256 13 -85
13 -346 0 -446 -35 -262 -51 -337 -111 -516 -146 -435 -394 -726 -691 -811
-75 -21 -259 -22 -341 0 -64 16 -158 61 -192 91 -76 68 -105 147 -105 286 0
135 27 276 90 482 12 39 25 84 30 100 4 17 33 111 65 210 143 455 162 702 70
886 -75 147 -246 244 -452 256 -168 10 -297 -37 -424 -155 -207 -191 -319
-489 -319 -847 0 -196 24 -328 84 -459 26 -57 26 -58 11 -129 -20 -96 -66
-286 -103 -427 -28 -107 -38 -145 -93 -347 -190 -708 -259 -1140 -259 -1628 0
-205 17 -470 36 -563 9 -43 44 -67 85 -58 34 6 157 105 229 182 195 211 338
465 460 820 70 204 147 500 206 797 9 48 20 87 24 87 3 0 47 -28 96 -62 167
-118 256 -166 373 -205 305 -100 733 -59 1066 102 253 122 508 346 672 590
367 546 519 1280 407 1965 -83 502 -357 919 -799 1214 -294 197 -714 338
-1115 375 -127 12 -347 20 -415 15z"/>
</g>
</svg>
