<svg width="112" height="112" viewBox="0 0 112 112" fill="none" xmlns="http://www.w3.org/2000/svg">
<g clip-path="url(#clip0)">
<path d="M99.6705 27.0481C98.5315 26.2303 97.8513 24.9042 97.8513 23.5028V2.1875C97.8513 0.979248 96.8721 0 95.6638 0H84.4572C83.2489 0 82.2697 0.979248 82.2697 2.1875V23.5028C82.2697 24.9042 81.5895 26.2303 80.4504 27.0481C72.7301 32.5903 68.121 41.5736 68.121 51.0781V53.6783C67.7407 52.7675 67.3391 51.866 66.911 50.9773C63.5409 43.9781 61.7593 36.1724 61.7593 28.4042V4.52112C61.7584 2.02771 59.7307 0 57.2382 0H48.4899C45.9965 0 43.9688 2.02771 43.9688 4.52112V28.4238C43.9688 36.1801 42.1923 43.9747 38.8256 50.979L38.8187 50.9927C38.3966 51.8702 38.001 52.7606 37.625 53.6604V45.4615C37.625 37.7079 33.3021 30.6575 26.4961 27.1156V2.1875C26.4961 0.979248 25.516 0 24.3086 0H13.3164C12.109 0 11.1289 0.979248 11.1289 2.1875V27.1156C4.32288 30.6575 0 37.7079 0 45.4615V109.812C0 111.021 0.979248 112 2.1875 112H35.4375C36.0143 112 36.5372 111.775 36.9277 111.41C37.7386 111.788 38.6418 112 39.5938 112H66.1522C67.4451 112 68.6482 111.61 69.6522 110.943C70.4178 111.6 71.4099 112 72.496 112H107.625C110.037 112 112 110.037 112 107.625V51.0781C112 41.5745 107.391 32.5903 99.6705 27.0481ZM86.6447 21.875V12.7336H93.4763V21.875H86.6447ZM93.4763 4.375V8.35864H86.6447V4.375H93.4763ZM48.3438 28.4238V14.8929H57.3834V28.4042C57.3834 31.2992 57.6176 34.1976 58.0653 37.0653H47.6653C48.1113 34.2036 48.3438 31.312 48.3438 28.4238ZM48.3438 4.52112C48.3438 4.4408 48.4095 4.375 48.4899 4.375H57.2382C57.3185 4.375 57.3834 4.4408 57.3834 4.52112V10.5179H48.3438V4.52112ZM22.1211 4.375V18.5006H15.5039V4.375H22.1211ZM14.188 30.5011C14.9869 30.1542 15.5039 29.3663 15.5039 28.4948V22.8756H22.1211V28.4948C22.1211 29.3655 22.6381 30.1542 23.437 30.5011C29.3979 33.0902 33.25 38.9623 33.25 45.4615V53.8125H17.5C16.2917 53.8125 15.3125 54.7917 15.3125 56C15.3125 57.2083 16.2917 58.1875 17.5 58.1875H33.25V90.0848H4.375V45.4615C4.375 38.9623 8.22705 33.0902 14.188 30.5011ZM33.25 107.625H4.375V94.4598H33.25V107.625ZM66.1522 107.625H39.5938C38.5077 107.625 37.625 106.742 37.625 105.656V75.4294C37.625 67.6732 39.4015 59.8785 42.7682 52.8743L42.775 52.8606C44.5242 49.2213 45.8734 45.3804 46.8074 41.4395H58.9241C59.8615 45.3855 61.2141 49.2316 62.9692 52.876C66.3394 59.8743 68.121 67.6801 68.121 75.4482V105.656C68.121 106.742 67.2374 107.625 66.1522 107.625ZM107.625 107.625H72.496V51.0781C72.496 42.9801 76.4232 35.3247 83.002 30.6019C84.5153 29.515 85.621 27.9795 86.1952 26.25H93.9249C94.5 27.9795 95.6057 29.515 97.119 30.6019C103.698 35.3247 107.625 42.9801 107.625 51.0781V107.625Z" fill="#828282"/>
<path d="M9.50024 58.1875C10.0753 58.1875 10.6401 57.9534 11.0469 57.5466C11.4536 57.1399 11.6877 56.5751 11.6877 56C11.6877 55.4249 11.4536 54.8601 11.0469 54.4534C10.6401 54.0466 10.0753 53.8125 9.50024 53.8125C8.92517 53.8125 8.36035 54.0466 7.95361 54.4534C7.54688 54.8601 7.31274 55.4249 7.31274 56C7.31274 56.5751 7.54688 57.1399 7.95361 57.5466C8.36035 57.9534 8.92517 58.1875 9.50024 58.1875Z" fill="#828282"/>
<path d="M18.8125 82.3696C23.3524 82.3696 27.0455 78.6757 27.0455 74.1366C27.0455 69.5967 23.3524 65.9036 18.8125 65.9036C14.2726 65.9036 10.5795 69.5967 10.5795 74.1366C10.5795 78.6757 14.2726 82.3696 18.8125 82.3696ZM18.8125 70.2786C20.9402 70.2786 22.6705 72.0089 22.6705 74.1366C22.6705 76.2634 20.9402 77.9946 18.8125 77.9946C16.6848 77.9946 14.9545 76.2634 14.9545 74.1366C14.9545 72.0089 16.6848 70.2786 18.8125 70.2786Z" fill="#828282"/>
<path d="M100.629 71.3125C100.054 71.3125 99.4894 71.5466 99.0826 71.9534C98.6759 72.3601 98.4418 72.9224 98.4418 73.5C98.4418 74.0751 98.6759 74.6399 99.0826 75.0466C99.4894 75.4534 100.054 75.6875 100.629 75.6875C101.204 75.6875 101.769 75.4534 102.176 75.0466C102.583 74.6399 102.817 74.0751 102.817 73.5C102.817 72.9249 102.583 72.3601 102.176 71.9534C101.769 71.5466 101.204 71.3125 100.629 71.3125Z" fill="#828282"/>
<path d="M77.3042 58.1875V88.8125C77.3042 90.0208 78.2834 91 79.4917 91H100.629C101.837 91 102.817 90.0208 102.817 88.8125V81.5938C102.817 80.3855 101.837 79.4062 100.629 79.4062C99.421 79.4062 98.4418 80.3855 98.4418 81.5938V86.625H81.6792V60.375H98.4418V64.333C98.4418 65.5413 99.421 66.5205 100.629 66.5205C101.837 66.5205 102.817 65.5413 102.817 64.333V58.1875C102.817 56.9792 101.837 56 100.629 56H79.4917C78.2834 56 77.3042 56.9792 77.3042 58.1875Z" fill="#828282"/>
<path d="M61.5491 73.0625H44.1969C42.9886 73.0625 42.0094 74.0417 42.0094 75.25V98C42.0094 99.2083 42.9886 100.188 44.1969 100.188H61.5491C62.7573 100.188 63.7366 99.2083 63.7366 98V75.25C63.7366 74.0417 62.7573 73.0625 61.5491 73.0625ZM59.3616 95.8125H46.3844V77.4375H59.3616V95.8125Z" fill="#828282"/>
</g>
<defs>
<clipPath id="clip0">
<rect width="112" height="112" fill="white"/>
</clipPath>
</defs>
</svg>
